<?xml version="1.0" encoding="UTF-8" standalone="no"?>
<!-- Created with Inkscape (http://www.inkscape.org/) -->

<svg
   xmlns:dc="http://purl.org/dc/elements/1.1/"
   xmlns:cc="http://creativecommons.org/ns#"
   xmlns:rdf="http://www.w3.org/1999/02/22-rdf-syntax-ns#"
   xmlns:svg="http://www.w3.org/2000/svg"
   xmlns="http://www.w3.org/2000/svg"
   xmlns:sodipodi="http://sodipodi.sourceforge.net/DTD/sodipodi-0.dtd"
   xmlns:inkscape="http://www.inkscape.org/namespaces/inkscape"
   version="1.1"
   id="svg3790"
   xml:space="preserve"
   width="161.312"
   height="75.542664"
   viewBox="0 0 161.31199 75.542662"
   sodipodi:docname="nhm-logo.svg"
   inkscape:version="0.92.4 5da689c313, 2019-01-14"><metadata
     id="metadata3796"><rdf:RDF><cc:Work
         rdf:about=""><dc:format>image/svg+xml</dc:format><dc:type
           rdf:resource="http://purl.org/dc/dcmitype/StillImage" /><dc:title></dc:title></cc:Work></rdf:RDF></metadata><defs
     id="defs3794"><clipPath
       clipPathUnits="userSpaceOnUse"
       id="clipPath3808"><path
         d="M 0,167.24 H 325.999 V 0 H 0 Z"
         id="path3806"
         inkscape:connector-curvature="0" /></clipPath></defs><sodipodi:namedview
     pagecolor="#ffffff"
     bordercolor="#666666"
     borderopacity="1"
     objecttolerance="10"
     gridtolerance="10"
     guidetolerance="10"
     inkscape:pageopacity="0"
     inkscape:pageshadow="2"
     inkscape:window-width="1884"
     inkscape:window-height="1014"
     id="namedview3792"
     showgrid="false"
     inkscape:zoom="1.3408874"
     inkscape:cx="241.82993"
     inkscape:cy="37.705607"
     inkscape:window-x="1095"
     inkscape:window-y="1125"
     inkscape:window-maximized="0"
     inkscape:current-layer="g3798" /><g
     id="g3798"
     inkscape:groupmode="layer"
     inkscape:label="nhm-logo"
     transform="matrix(1.3333333,0,0,-1.3333333,-5.3337332,149.3304)"><g
       id="g3848"
       transform="translate(52.4473,55.5938)"
       style="fill:#000000"><path
         d="m 0,0 v 43.253 c 0,1.998 -0.109,3.268 -0.363,4.395 -1.271,5.704 -5.722,8.756 -13.006,8.756 h -2.416 V 32.153 L -32.298,56.404 H -48.447 V 13.152 c 0,-1.998 0.109,-3.271 0.363,-4.397 C -46.812,3.053 -42.361,0 -35.078,0 h 2.416 V 24.614 L -15.931,0 Z m -45.794,53.751 h 12.06 l 20.6,-30.207 v 30.353 h 0.492 c 5.067,0 8.465,-2.251 9.59,-6.576 0.273,-1.053 0.4,-2.252 0.4,-4.305 V 2.651 H -14.514 L -35.313,33.279 V 2.506 h -0.491 c -5.068,0 -8.465,2.254 -9.592,6.578 -0.271,1.053 -0.398,2.252 -0.398,4.305 z M 40.818,19.909 c 0,-3.595 1.562,-5.775 5.104,-5.775 3.543,0 5.104,2.18 5.104,5.775 0,3.597 -1.561,5.778 -5.104,5.778 -3.542,0 -5.104,-2.181 -5.104,-5.778 m 21.491,-5.52 c -0.51,-0.076 -0.945,-0.111 -1.327,-0.111 -1.508,0 -2.052,0.582 -2.471,1.453 l -1.381,2.834 h -1.379 v -4.176 h -2.836 v 11.044 h 4.579 c 2.779,0 4.16,-1.38 4.16,-3.473 0,-1.433 -0.563,-2.414 -1.853,-2.994 z M 53.68,28.847 c -0.455,-0.054 -0.836,-0.073 -1.163,-0.073 -1.544,0 -1.908,0.509 -2.271,1.436 l -1.072,2.815 H 47.922 V 28.847 H 45.16 v 11.045 h 4.323 c 2.78,0 4.161,-1.381 4.161,-3.488 0,-1.435 -0.655,-2.508 -1.89,-3.015 z m -41.545,4.25 c -0.309,0.836 -0.891,2.108 -1.526,3.162 L 9.356,38.348 C 8.629,39.565 8.193,39.892 7.104,39.892 H 5.813 V 28.847 h 2.543 v 6.885 H 8.393 C 8.702,34.878 9.356,33.534 9.992,32.48 l 1.362,-2.27 c 0.618,-1.036 1.09,-1.363 2.162,-1.363 h 1.199 v 11.045 h -2.543 v -6.795 z m 0.291,-18.708 v 4.612 H 8.646 V 14.389 H 5.813 v 11.044 h 2.833 v -4.27 h 3.78 v 4.27 h 2.833 V 14.389 Z m 10.645,14.458 -0.491,1.926 h -3.306 l -0.418,-1.926 h -2.779 l 2.834,11.045 h 3.742 l 3.233,-11.045 z m 38.256,0 -0.453,1.926 h -3.326 l -0.436,-1.926 h -2.779 l 2.978,11.045 h 3.744 L 64.143,28.847 Z M 40.328,39.892 h 2.761 V 32.48 c 0,-2.997 -2.071,-3.888 -4.304,-3.888 -2.235,0 -4.306,0.891 -4.306,3.888 v 7.412 h 0.652 c 1.581,0 2.109,-0.745 2.109,-2.217 v -5.122 c 0,-1.199 0.509,-1.744 1.545,-1.744 1.034,0 1.543,0.545 1.543,1.744 z M 26.705,14.134 c -1.601,0 -3.163,0.434 -4.525,1.526 l 1.146,1.907 c 0.762,-0.654 1.924,-1.29 3.252,-1.29 1.034,0 1.87,0.254 1.87,1.072 0,1.943 -5.777,1.017 -5.777,4.941 0,2.308 1.981,3.397 4.142,3.397 1.617,0 2.96,-0.49 3.996,-1.344 l -1.017,-1.908 c -0.854,0.671 -1.926,1.109 -2.979,1.109 -0.908,0 -1.418,-0.347 -1.418,-0.946 0,-1.925 5.778,-1.018 5.778,-4.959 0,-2.198 -1.907,-3.505 -4.468,-3.505 M 14.733,9.211 V 0 h 1.471 V 11.045 H 14.188 L 11.009,3.741 7.831,11.045 H 5.813 V 0 H 7.284 V 9.211 H 7.322 C 7.466,8.666 7.757,7.793 8.265,6.632 l 2.307,-5.177 h 0.872 l 2.307,5.177 c 0.527,1.161 0.8,2.034 0.945,2.579 z m 52.662,11.517 2.053,4.705 h 3.089 l -3.762,-7.375 v -3.669 h -2.797 v 3.669 l -3.762,7.375 h 3.089 l 2.053,-4.705 z M 34.713,14.389 v 8.808 h -2.778 v 2.236 h 8.503 v -0.529 c 0,-1.197 -0.473,-1.707 -1.981,-1.707 h -0.909 v -8.808 z m -6.755,14.458 v 8.811 H 25.36 v 2.234 h 8.066 v -0.527 c 0,-1.198 -0.473,-1.707 -1.981,-1.707 h -0.726 v -8.811 z m 37.437,0 v 11.045 h 2.762 v -8.81 H 72.1 V 28.847 Z M 55.623,9.863 c 0,0.82 0.346,1.182 1.163,1.182 h 0.308 v -7.32 c 0,-2.924 -2.178,-3.978 -4.141,-3.978 -1.961,0 -4.141,1.054 -4.141,3.978 v 7.32 h 1.471 V 3.797 c 0,-2.053 1.289,-2.761 2.67,-2.761 1.38,0 2.67,0.708 2.67,2.761 z m -35.277,0 c 0,0.82 -0.345,1.182 -1.163,1.182 h -0.308 v -7.32 c 0,-2.924 2.18,-3.978 4.141,-3.978 1.962,0 4.142,1.054 4.142,3.978 v 7.32 H 25.687 V 3.797 c 0,-2.053 -1.29,-2.761 -2.671,-2.761 -1.38,0 -2.67,0.708 -2.67,2.761 z m 9.138,-1.634 c 0,-3.852 6.031,-2.543 6.031,-5.359 0,-1.235 -1.036,-1.89 -2.652,-1.89 -1.327,0 -2.4,0.509 -3.217,1.364 L 28.793,1.271 c 1.035,-0.998 2.38,-1.524 4.105,-1.524 2.289,0 4.233,1.016 4.233,3.232 0,3.869 -6.157,2.782 -6.157,5.359 0,1.053 0.836,1.727 2.178,1.727 1.218,0 2.272,-0.473 3.016,-1.253 l 0.909,0.908 c -0.981,1.016 -2.254,1.578 -3.905,1.578 -2.381,0 -3.688,-1.272 -3.688,-3.069 M 41.056,5.231 h 4.648 V 6.43 h -4.648 v 3.417 h 4.248 c 0.854,0 1.182,0.344 1.182,0.999 v 0.199 H 39.582 V 0 h 7.157 V 1.199 H 41.056 Z M 17.675,25.433 H 20.51 V 14.389 h -2.835 z m 30.391,-5.524 c 0,-2.342 -0.509,-3.542 -2.144,-3.542 -1.635,0 -2.143,1.2 -2.143,3.542 0,2.345 0.508,3.543 2.143,3.543 1.635,0 2.144,-1.198 2.144,-3.543 m 7.685,3.381 v -2.636 h 1.56 c 1.165,0 1.508,0.672 1.508,1.364 0,0.69 -0.418,1.272 -1.542,1.272 z m -7.829,14.458 v -2.634 h 1.453 c 1.162,0 1.506,0.673 1.506,1.362 0,0.691 -0.416,1.272 -1.543,1.272 z M 20.8,37.803 19.746,32.935 h 2.29 l -1.2,4.868 z m 38.365,0 -1.106,-4.868 h 2.286 l -1.143,4.868 z M 68.701,9.211 V 0 h 1.473 v 11.045 h -2.017 l -3.178,-7.304 -3.18,7.304 H 59.783 V 0 h 1.472 v 9.211 h 0.037 c 0.143,-0.545 0.435,-1.418 0.943,-2.579 l 2.307,-5.177 h 0.872 l 2.308,5.177 c 0.527,1.161 0.799,2.034 0.944,2.579 h 0.035"
         style="fill:#000000;fill-opacity:1;fill-rule:nonzero;stroke:none"
         id="path3850"
         inkscape:connector-curvature="0" /></g></g></svg>